<svg width="390" height="571" viewBox="0 0 390 571" fill="none" xmlns="http://www.w3.org/2000/svg">
<g clip-path="url(#clip0_3_2067)">
<path fill-rule="evenodd" clip-rule="evenodd" d="M331.388 817.657C389.877 779.313 379.315 691.689 406.773 627.367C433.6 564.521 506.484 511.984 490.199 445.62C473.874 379.089 382.103 369.191 331.967 322.51C280.459 274.552 260.843 191.31 193.864 169.707C123.143 146.898 36.5604 160.824 -20.0299 208.983C-74.5802 255.406 -57.545 342.235 -86.075 407.937C-114.182 472.666 -191.925 518.924 -185.116 589.163C-178.252 659.961 -110.849 708.694 -52.9182 749.968C-0.180084 787.542 62.6735 799.908 126.446 811.141C195.447 823.294 272.794 856.07 331.388 817.657Z" stroke="#333333" stroke-width="2"/>
<path fill-rule="evenodd" clip-rule="evenodd" d="M312.456 786.687C364.931 752.286 355.455 673.673 380.089 615.965C404.157 559.581 469.547 512.446 454.937 452.907C440.29 393.217 357.956 384.337 312.975 342.456C266.765 299.43 249.165 224.747 189.073 205.366C125.624 184.902 47.9455 197.396 -2.82572 240.603C-51.7666 282.252 -36.4831 360.152 -62.0794 419.099C-87.2964 477.171 -157.045 518.673 -150.936 581.689C-144.778 645.207 -84.3061 688.929 -32.3322 725.958C14.983 759.669 71.3734 770.764 128.588 780.841C190.494 791.745 259.887 821.15 312.456 786.687Z" stroke="#333333" stroke-width="2"/>
<path fill-rule="evenodd" clip-rule="evenodd" d="M350.023 848.142C414.433 805.917 402.802 709.424 433.038 638.591C462.58 569.384 542.842 511.528 524.909 438.448C506.931 365.183 405.872 354.283 350.66 302.876C293.94 250.065 272.338 158.396 198.579 134.607C120.7 109.49 25.3537 124.825 -36.9647 177.859C-97.0364 228.98 -78.2769 324.598 -109.695 396.951C-140.647 468.231 -226.258 519.171 -218.76 596.52C-211.202 674.484 -136.976 728.149 -73.1819 773.601C-15.1057 814.978 54.1099 828.597 124.338 840.966C200.323 854.35 285.498 890.442 350.023 848.142Z" stroke="#333333" stroke-width="2"/>
<path fill-rule="evenodd" clip-rule="evenodd" d="M369.87 880.607C440.584 834.249 427.814 728.31 461.011 650.544C493.445 574.562 581.563 511.044 561.875 430.809C542.137 350.373 431.185 338.406 370.569 281.967C308.296 223.986 284.58 123.344 203.601 97.227C118.098 69.6504 13.4192 86.4874 -54.9993 144.712C-120.951 200.838 -100.355 305.815 -134.849 385.25C-168.831 463.508 -262.822 519.435 -254.59 604.354C-246.292 689.951 -164.801 748.869 -94.7617 798.77C-31.0006 844.197 44.9903 859.149 122.092 872.729C205.515 887.423 299.029 927.048 369.87 880.607Z" stroke="#333333" stroke-width="2"/>
</g>
<defs>
<clipPath id="clip0_3_2067">
<rect width="390" height="627" fill="white" transform="matrix(-1 0 0 1 390 -56)"/>
</clipPath>
</defs>
</svg>
